<svg width="128" height="128" viewBox="0 0 128 128" fill="none" xmlns="http://www.w3.org/2000/svg">
<path fill-rule="evenodd" clip-rule="evenodd" d="M32.0002 7.66666C28.3755 7.66666 24.8994 9.10653 22.3364 11.6695C19.7734 14.2325 18.3335 17.7087 18.3335 21.3333V106.667C18.3335 110.291 19.7734 113.767 22.3364 116.33C24.8994 118.893 28.3755 120.333 32.0002 120.333H96.0002C99.6248 120.333 103.101 118.893 105.664 116.33C108.227 113.767 109.667 110.291 109.667 106.667V44.4907V44.4903C109.667 42.6696 109.303 40.8673 108.596 39.1893C107.89 37.5115 106.855 35.9917 105.554 34.7191L105.553 34.7186L81.8737 11.5618L81.8735 11.5617C79.3203 9.06515 75.8914 7.6671 72.3205 7.66666H72.3202H32.0002ZM26.579 15.9122C28.0168 14.4744 29.9668 13.6667 32.0002 13.6667H71.6668V32C71.6668 35.6246 73.1067 39.1008 75.6697 41.6638C78.2327 44.2268 81.7089 45.6667 85.3335 45.6667H103.667V106.667C103.667 108.7 102.859 110.65 101.421 112.088C99.9835 113.526 98.0335 114.333 96.0002 114.333H32.0002C29.9668 114.333 28.0168 113.526 26.579 112.088C25.1412 110.65 24.3335 108.7 24.3335 106.667V21.3333C24.3335 19.3 25.1412 17.3499 26.579 15.9122ZM101.958 39.6667C101.772 39.4366 101.572 39.2171 101.359 39.0094L101.359 39.0089L77.6788 15.8517L77.6786 15.8515C77.6747 15.8477 77.6708 15.8438 77.6668 15.84V32C77.6668 34.0333 78.4746 35.9834 79.9123 37.4211C81.3501 38.8589 83.3002 39.6667 85.3335 39.6667H101.958ZM48.0002 66.3333C46.3433 66.3333 45.0002 67.6765 45.0002 69.3333C45.0002 70.9902 46.3433 72.3333 48.0002 72.3333H80.0002C81.657 72.3333 83.0002 70.9902 83.0002 69.3333C83.0002 67.6765 81.657 66.3333 80.0002 66.3333H48.0002ZM48.0002 87.6667C46.3433 87.6667 45.0002 89.0098 45.0002 90.6667C45.0002 92.3235 46.3433 93.6667 48.0002 93.6667H64.0002C65.657 93.6667 67.0002 92.3235 67.0002 90.6667C67.0002 89.0098 65.657 87.6667 64.0002 87.6667H48.0002Z" fill="#777E91"/>
</svg>
