<svg width="128" height="128" viewBox="0 0 128 128" fill="none" xmlns="http://www.w3.org/2000/svg">
<path d="M10.6665 26.6667C10.6665 25.2522 11.2284 23.8956 12.2286 22.8954C13.2288 21.8952 14.5853 21.3333 15.9998 21.3333H112C113.414 21.3333 114.771 21.8952 115.771 22.8954C116.771 23.8956 117.333 25.2522 117.333 26.6667V101.333C117.333 102.748 116.771 104.104 115.771 105.105C114.771 106.105 113.414 106.667 112 106.667H15.9998C14.5853 106.667 13.2288 106.105 12.2286 105.105C11.2284 104.104 10.6665 102.748 10.6665 101.333V26.6667Z" stroke="#777E91" stroke-width="6" stroke-linejoin="round"/>
<path d="M117.333 42.6667V53.3333M95.9998 21.3333V106.667V21.3333ZM31.9998 21.3333V106.667V21.3333ZM101.333 48H117.333H101.333ZM101.333 80H117.333H101.333ZM10.6665 48H26.6665H10.6665ZM10.6665 42.6667V53.3333V42.6667ZM23.9998 21.3333H39.9998H23.9998ZM23.9998 106.667H39.9998H23.9998ZM87.9998 21.3333H104H87.9998ZM87.9998 106.667H104H87.9998ZM10.6665 80H26.6665H10.6665ZM10.6665 74.6667V85.3333V74.6667ZM117.333 74.6667V85.3333V74.6667Z" stroke="#777E91" stroke-width="6" stroke-linecap="round" stroke-linejoin="round"/>
<path d="M56 50.6667L77.3333 64L56 77.3333V50.6667Z" stroke="#777E91" stroke-width="6" stroke-linejoin="round"/>
</svg>
